<svg xmlns="http://www.w3.org/2000/svg" width="256" height="256" viewBox="0 0 256 256"><path d="M59.9 166.8a31 31 0 0 0-7.6.9.1.1 0 0 1-.1.1c0 .3.3.6.8 1l2 1 2.6 1 2.8.8 2.4.6 1.4.2h2.1a10.1 10.1 0 0 0 2.5-.5 13.5 13.5 0 0 0 2.4-.8 5 5 0 0 0 1.7-1.5 30 30 0 0 0-6.4-2.1 29.1 29.1 0 0 0-6.6-.7z"/><path d="M128.2 2.2a126 126 0 1 0 126 126 126 126 0 0 0-126-126zm82.2 69.5v.3a8.8 8.8 0 0 1-.1 1.4q-.2.9-.3 2.1c-.2.7-.2 1.4-.4 2s-.2 1.1-.2 1.4a5.1 5.1 0 0 0-.9 1.8l-.6 1.9-.6 2c-.2.7-.5 1.3-.7 1.9l-1.7 3.1a21.1 21.1 0 0 0-1.6 3l-19.8 27.5a.8.8 0 0 1-.2.5l-.3.3-.3.3-.4.5-1.6 2.2-2.1 2.8-2.1 3.3a28 28 0 0 0-2 3.2 25.3 25.3 0 0 0-1.4 2.9 8.7 8.7 0 0 0-.5 2.3c0 .3-.2.6-.2.8s.2.4.2.6a.3.3 0 0 0-.3.3c0 .3.1.4.3.4v10.1a4.4 4.4 0 0 1-.2 1c-.2.4-.2.8-.4 1.2a6.7 6.7 0 0 0-.6 1.2c-.1.4-.5.8-.5 1.1v1.6c0 .1.2.2 0 .4a3 3 0 0 1-.4.8l-.7.8c-.1.3-.5.4-.5.4v.4c0 .1.7.2.8.4s.8.4.8.5v1.4a2.2 2.2 0 0 1 0 .8v.6a20.2 20.2 0 0 1-.6 3.4c-.1 1.2-.5 2.4-.7 3.5s-.5 2.3-.7 3.5a20.7 20.7 0 0 0-.3 3.5c0 2.1.1 4.2.3 6.2a31.2 31.2 0 0 0 1.1 6.1 27.8 27.8 0 0 0 2.1 5.7 19.4 19.4 0 0 0 3.4 5.2 5.7 5.7 0 0 1-1.3.8l-1.7.7-1.7.5h-1.9l-1-.2-1.2-.3-.9-.2h-.8l-.7-.3-.6-.5a.9.9 0 0 1-.3-.7c.1-1.3.1-2.6.1-4l-.3-4.2c-.2-1.5-.3-2.9-.5-4.3s-.4-2.7-.5-4a.8.8 0 0 1-.2-.6q-.1-.6-.3-.6c.1-1.1.1-2.3.1-3.7a25.4 25.4 0 0 0-.1-3.9 25.7 25.7 0 0 0-.6-4 11.6 11.6 0 0 0-1.4-3.4 3.7 3.7 0 0 0-1.4 1.8 17.3 17.3 0 0 0-.8 2.7c-.2 1-.2 1.9-.4 2.9a11.8 11.8 0 0 0-.9 2.3v3.7a17.6 17.6 0 0 0 0 2.3v1.5c0 2.8-.3 5.5-.1 8.2s.2 5.4.5 8.1l.4.4a2.1 2.1 0 0 1 .8.6l.8.6c.3.3.4.5.4.7s-.3.5-.8.8l-1.9.8a8.4 8.4 0 0 1-2 .8l-1.2.4h-.2l-4.7-2.5a.5.5 0 0 1-.3-.5v-.6a14.5 14.5 0 0 1 .1-3 28.1 28.1 0 0 0 .1-3 23.1 23.1 0 0 0-.3-3.7l-.6-3.7-.6-3.7a24.8 24.8 0 0 1-.2-3.9c0-1.2 0-2.3.1-3.3a22.3 22.3 0 0 1 .3-2.7 27.4 27.4 0 0 0 .5-2.8c.2-1 .4-2 .7-3.2a2 2 0 0 0-.1-.7c0-.3-.1-.5-.1-.7l-1.8.2-1.9.5-1.9.6-1.9.5-1.3.2-1.1.2c-.3 0-.6-.2-1-.1l-1-.2h-1.8a44.7 44.7 0 0 1-5.2-.1h-7.6a4.1 4.1 0 0 0-2.4.8 45.1 45.1 0 0 1 0 5.2c0 1.7-.1 3.4-.1 5l-.3 5.1c0 1.7-.1 3.4-.1 5.2v.9a8.5 8.5 0 0 0 0 1.6v2.4c0 .5.6 1.1 1.1 1.7l1.4 1.7 1.2 1.7a4.1 4.1 0 0 1 .5 1.8v.2h-.1a7.6 7.6 0 0 1-4 .4c.1.5 0 .8-.2.8h-2.7a7.8 7.8 0 0 1-2.2-.2 3.7 3.7 0 0 1-1.8-.8 2.1 2.1 0 0 1-.8-1.9c0-.4.1-.8.1-1.3l.3-1.2a9.3 9.3 0 0 0 .4-1.3 6.6 6.6 0 0 0 .1-1.4 23.4 23.4 0 0 0-.3-3.8l-.6-3.6-.9-3.8c-.2-1.1-.5-2.3-.7-3.9h-.4c-.2 0-.4.7-.5.9l-.4.7-.3.5-1.5 2.3a14.3 14.3 0 0 0-1.5 2.2 25.6 25.6 0 0 0-1.1 2.4 12.6 12.6 0 0 0-.4 2.7 4.5 4.5 0 0 0 .3 1.6l.8 1.5.7 1.1.3.6a.7.7 0 0 1-.4.7l-1 .5-1.3.3h-2.6l-1.7-.2a3.5 3.5 0 0 1-1.1-.3 2.2 2.2 0 0 1-.7-.9l-.5-1.6c-.2-.6-.3-1.1-.5-1.6a4.7 4.7 0 0 1-.3-1.7 4.3 4.3 0 0 1 .4-1.4 14 14 0 0 1 1-1.6l1-1.6a7 7 0 0 0 .8-1.4c.8-1.9 1.7-3.9 2.4-5.9l2.5-5.8a1.8 1.8 0 0 1 .5-.7 3.5 3.5 0 0 1 .5-.8 1.6 1.6 0 0 0 .4-.7 2.4 2.4 0 0 0 .2-.8q0-.6-.3-.6h-1.3l-8.9 2.4a3.2 3.2 0 0 1-1.3.5l-1.8.4a3.4 3.4 0 0 0-1.5.6 1 1 0 0 0-.7 1 2 2 0 0 0 .2.9l.7.7.8.5.7.6-.4.4-1.2-.8-1.4-.8-1.5-.6-1.5-.3a13.1 13.1 0 0 0-3.8.6l-3.9 1.4-4.1 1.1a14 14 0 0 1-4.1.5 18.5 18.5 0 0 1-3.5-.4 35.8 35.8 0 0 1-4.8-1.1 56 56 0 0 1-5.4-1.7 27.8 27.8 0 0 1-4.9-2.3 18.5 18.5 0 0 1-3.7-2.6 4.4 4.4 0 0 1-1.4-3 4.6 4.6 0 0 1 1.1-3.2 5.3 5.3 0 0 1 2.7-1.6c1.1-.4 2.3-.1 3.5-.2s2.3.4 3.3.4h3.9c.2 0 .6-.4 1.3-.3a19.5 19.5 0 0 1 2.3.2l2.6.3 1.9.2a6 6 0 0 1 1.9.6l1.8.8 1.8.8a6.4 6.4 0 0 0 2 .3 8.9 8.9 0 0 0 4-1.1 29.2 29.2 0 0 0 4-2.5 40.8 40.8 0 0 0 3.9-3.1l3.2-2.7 1.9-1.2 1.8-1.1 1.7-1.2a8 8 0 0 0 1.5-1.7 40.4 40.4 0 0 0 2.6-4.5 39.9 39.9 0 0 1 2.7-4.4l1.3-1.3 1.5-1 1.6-.9a5.1 5.1 0 0 0 1.6-.9 23.6 23.6 0 0 0 3.6-2.6c1.2-.9 2.3-1.9 3.4-2.9l3.4-2.9c1.1-1 2.2-2 3.4-2.9a22.6 22.6 0 0 1 3.7-2.2l3.9-1.8 2.5-1.3 2.4-1.3 2.6-1.1a7.7 7.7 0 0 1 2.6-.7l22.2-3.3a8.9 8.9 0 0 0 3.5-1.1 17.2 17.2 0 0 0 3.3-2.2 27.9 27.9 0 0 0 3.2-2.8l2.9-3.3 2.6-3.1c.8-1.1 1.6-2 2.3-2.8l7.7-8.9.3-.3.5-.5.5-.6.3-.2 2-3.3h.3a.5.5 0 0 1 .4-.2l.3-.3.3-.2.4-.4.3-.4 1.3-1.7c.4-.6.9-1.2 1.3-1.9l1.3-2 1-1.7a11.9 11.9 0 0 0 .8-2 17.2 17.2 0 0 0 .7-2.1 18 18 0 0 1 .8-2.1c.2-.8 1-1.5 1-2.2v-6.2a5 5 0 0 0-1.1-3 10.7 10.7 0 0 0-2.6-2.6 11.1 11.1 0 0 0-3.4-1.8 7.6 7.6 0 0 0-3.1-.7 22 22 0 0 0-5.8.7 12.4 12.4 0 0 0-5.1 2.6l-1.4 1.4-1.6 1.9a16.3 16.3 0 0 0-1.7 2l-1.9 1.8-1.8 1.3a4.1 4.1 0 0 1-1.7.5 1.7 1.7 0 0 1-1.2-.5 1.6 1.6 0 0 1-.5-1.1v-.4a4.3 4.3 0 0 0 .1-.5c.1-.2.1-.5.2-.8s.1-.5.1-.7a1.3 1.3 0 0 0 .1-.5 4.7 4.7 0 0 0-.3-1.7 6.9 6.9 0 0 0-.5-1.3 3.4 3.4 0 0 1-.6-1.2 2.7 2.7 0 0 1-.3-1.2 1.2 1.2 0 0 0 .9-.3l.4-.6c.1-.3.3-.5.4-.8l.8-.5c0-.1.2-.1.6-.1h2.2a1.1 1.1 0 0 0 1-.4 2.2 2.2 0 0 1 .7-.6.1.1 0 0 1 .2 0h.2c0 .1.1.2.2.4l.2.4c0-.2.1-.3.4-.4l.6-.3 1.1-.7 1.3-.8 1.4-.8 1.1-.6.5-.4a12 12 0 0 1 2.1-1.2l1.8-.7 1.9-.2h6.4l1.4.5 1.5.3 1.6.3 1.5.5a16.2 16.2 0 0 1 7.7 7.2 19.6 19.6 0 0 1 1.7 5 24.1 24.1 0 0 1 .5 5.4v2.3z"/></svg>