<svg xmlns="http://www.w3.org/2000/svg" width="256" height="256" viewBox="0 0 256 256"><path d="M132.1 151.1c-.3 0-.5.2-.5.6-.4 0-.5.1-.5.5s.1.6.5.6.4-.2.4-.6h.1a.5.5 0 0 0 .5-.5c0-.4-.2-.6-.5-.6zm1.4-.8a2.4 2.4 0 0 0-.9.8h.3a2 2 0 0 0 1.1-.3 2.4 2.4 0 0 0 .9-.8h-.3a2.3 2.3 0 0 0-1.1.3zm3-2.5c-.3 0-.4.1-.4.5h-.1c-.3 0-.4.2-.4.6h-.2c-.3 0-.4.2-.4.5s.1.6.4.6.5-.2.5-.6h.1c.3 0 .4-.2.4-.5h.1c.4 0 .5-.2.5-.6s-.1-.5-.5-.5zm23-5.9a8.7 8.7 0 0 1-1.2 1.4 1.7 1.7 0 0 0 .8 1 2 2 0 0 0 1.1.2 1.9 1.9 0 0 0 1.4-.5 4.3 4.3 0 0 0 1.1-1.2l.7-1.4c.2-.5.4-1.2.5-1.2h-3.4c-.2 0-.5 1.1-1 1.7z"/><path d="M127.5 2.2a126 126 0 0 0-125.9 126c0 69.5 56.4 126 125.9 126a126 126 0 1 0 0-252zM222 76.9l-1.5.4h-3.7a37.5 37.5 0 0 0-5.1 1.3 11.5 11.5 0 0 0-3.7 1.6 9.8 9.8 0 0 0-2.4 2.1 11.9 11.9 0 0 0-1.8 2.9 24.9 24.9 0 0 0-1.4 3.9c-.5 1.4-1.1 3.1-1.7 5l-1.2 3.4-1.2 3.1c-.4 1.1-.9 2.1-1.4 3.2s-1.1 2.1-1.8 3.2a39.4 39.4 0 0 1-2.6 4c-1 1.2-1.9 2.5-3 3.6l-3 3.6a39.3 39.3 0 0 0-3.1 3.8 9.4 9.4 0 0 0-1.4 2.6l-.9 2.5a8.3 8.3 0 0 1-1.4 2.2 4.8 4.8 0 0 1-2.4 1.6l-1.4.6-2 .6-2 .7-1.3.3a2.8 2.8 0 0 1 .1 2 2.1 2.1 0 0 1-.8 1l-1.2.6a1.3 1.3 0 0 0-.9.9l-2.3 6.7a2.5 2.5 0 0 1-1 1.5 5.3 5.3 0 0 1-1.7.8 13.6 13.6 0 0 1-2 .2 10.9 10.9 0 0 1-1.9-.1H157c-.3-.1-.4-.3-.4-.8s0-.3.1-.4l.2-.3.2-.2a.6.6 0 0 0 .1-.4v-.2a21.1 21.1 0 0 0-3.4 1.6l-3.3 2.1-3.3 2.1a37.9 37.9 0 0 1-3.4 2l-.8.4-1.2.6a3.9 3.9 0 0 0-1 .8 1.3 1.3 0 0 0-.4 1v.6l1.8 1.6 1.9 1.7 2.1 1.6a14.3 14.3 0 0 0 2.1 1.2l1.7.7 2 .5 1.8.6a6.9 6.9 0 0 1 1.7 1 5.3 5.3 0 0 1 1.3 1.3l1.1 1.5 1.2 1.5a4.4 4.4 0 0 0 1.4 1.3 5.8 5.8 0 0 0 1.7.5l2 .7a5.2 5.2 0 0 1 1.8 1 2.1 2.1 0 0 1 .8 1.7.4.4 0 0 0-.1.3v.2l-5.5 1.1-1.1.4a2.1 2.1 0 0 1-1.2.3h-.5l-1.1-.6-1.8-1-1.6-1a3.8 3.8 0 0 1-1.1-.8s-.1 0-.2-.2l-.3-.5-.3-.5-.3-.4-2.2-4.5-1.1-.5-1.8-.7-2.2-.9-2.1-1-1.8-.8-1.1-.6a25.2 25.2 0 0 1-2.7-1.5 27.5 27.5 0 0 1-2.6-2.2 12.1 12.1 0 0 1-2-2.6 7.1 7.1 0 0 1-1-3.1l-.6.2-.6.3-.8.7-1.7 1.1-2.1 1.4-2.1 1.4-1.8 1-.9.6-6 3.5a22.2 22.2 0 0 0-4.5 3.4 17 17 0 0 0-3.5 4.4c-.9 1.7-.8 3.8-2.4 6.5v1.6a10.5 10.5 0 0 0 1.1 4.4 9 9 0 0 0 2.1 2.5 7 7 0 0 0 2.7 1.4l2.5 1a3.9 3.9 0 0 1 1.9 1 4 4 0 0 1 .8 2h-13.3s0-.3-.1-.4a.4.4 0 0 0-.4-.2l-.5-.2c-.2-.1-.4-.1-.6-.3a3.7 3.7 0 0 1-1.3-1.5 14.3 14.3 0 0 1-.4-2.2 9.3 9.3 0 0 1 .2-2.3c0-.8.3-1.4.3-2v-1.5a6.6 6.6 0 0 1 .2-1.7l.6-2.7c.3-1 .5-2 .8-3.1s.5-2.1.8-3.1l.6-2.7a9.5 9.5 0 0 0 .4-1.7 9.3 9.3 0 0 1 .7-2 11.8 11.8 0 0 1 1-1.9 14.1 14.1 0 0 0 4.4-2.5 34.3 34.3 0 0 0 3.3-3.3c1-1.1 1.9-2.3 2.8-3.4a20.2 20.2 0 0 1 3.4-3.1l1.5-.7 2-.8a21.8 21.8 0 0 0 2.3-.9l2.2-1.1a10 10 0 0 0 1.5-1.3 2.5 2.5 0 0 0 .6-1.6v-1.3a1.7 1.7 0 0 0-.6-1.2l-.8-.3-1.2-.5-1.1-.6-.8-.3a9.4 9.4 0 0 1-2-1.2l-2.6-1.9-2.6-1.5a3.1 3.1 0 0 0-1.7-.6H107c-5.9 0-11.8-.1-17.5.1s-11.6.2-17.5.2c-4.4 0-8.6-.1-12.8-.3a102.9 102.9 0 0 1-12.3-1.4 82.5 82.5 0 0 1-11.9-3 65.3 65.3 0 0 1-11.7-5l-1.4-.7-1.6-1a4.9 4.9 0 0 1-1.2-1.3 2.5 2.5 0 0 1-.6-1.6 9.5 9.5 0 0 1 2.1.4l2.4 1 2.2.9 1.5.7 4.6 1.6 5 1.4a30.6 30.6 0 0 0 5.1 1 27.4 27.4 0 0 0 4.8.4h25.1l1.2-.2 2.5-.3 3.4-.5 3.6-.6 3.4-.6 2.6-.6 6.9-1.3 7.3-1.6 7.2-2.1a42.4 42.4 0 0 0 6.5-2.8l3.8-1.7a25.4 25.4 0 0 1 3.8-1.6l3.9-1.4 4.2-.9h4.5l1-.2 1.9-.4 3.3-.7 4-.9 4-.9c1.3-.3 2.4-.9 3.3-1.1s1.6-.7 1.9-.7h6.5c2.7 0 5.3.5 7.9.7s5.1.5 7.7.5a9.5 9.5 0 0 0 5-1.2 18.3 18.3 0 0 0 4.5-3.5 38.1 38.1 0 0 0 3.9-4.9c1.2-1.9 2.2-3.7 3.2-5.6a53.8 53.8 0 0 0 2.5-5.6l1.8-4.7c.4-1.2.8-2.4 1.1-3.5s.7-2.1 1-3.1a12.3 12.3 0 0 1 1.2-2.6 7.7 7.7 0 0 1 1.7-1.9 8.7 8.7 0 0 1 2.6-1.6 13.4 13.4 0 0 1 3.8-.8h3c.8 1.6 1.8.9 3 1.3a36.8 36.8 0 0 1 3.5 1.5 17 17 0 0 1 3 1.8 2.9 2.9 0 0 1 1.2 2.2 2.3 2.3 0 0 1-.4 1.4 3.6 3.6 0 0 1-1.2.5z"/></svg>