<svg xmlns="http://www.w3.org/2000/svg" width="256" height="256" viewBox="0 0 256 256"><path d="M127.9 2.2a126 126 0 1 0 126 126 126 126 0 0 0-126-126zm108.9 114.9h-7.3c-3 0-6-.2-9-.5l-9-.9-9-1c-3-.3-6.1-.4-9.1-.4a125.8 125.8 0 0 0-16.2 1 70.2 70.2 0 0 0-15.7 3.6l-30.2 11c-.5.1-.9.7-1.2 1.5a17.3 17.3 0 0 0-.8 2.7 15.7 15.7 0 0 0-.6 2.8 5 5 0 0 1-.7 2 3.6 3.6 0 0 0 1.4 1.3 13.3 13.3 0 0 0 2.4 1.1l2.9 1.2a17.1 17.1 0 0 1 2.7 1.4 7.8 7.8 0 0 1 2.1 1.9 4.1 4.1 0 0 1 .8 2.4 1.7 1.7 0 0 1-.5 1.2 3.8 3.8 0 0 1-1.2.9l-1.6.7-1.6.8a12.7 12.7 0 0 0-1.2 1 2.5 2.5 0 0 0-.5 1.5 4 4 0 0 0 .8 2.6 13.9 13.9 0 0 0 1.9 1.5l2.4 1.3a8.7 8.7 0 0 1 2.1 1.7 22.8 22.8 0 0 1 3.3 7.1c.3 1.2.6 2.5.8 3.8s.1 2.6.2 3.9l1.3 1.3v7.1h.9l1 .2.9.2.6.3a3.2 3.2 0 0 1 .1.8c0 .2-.1.5-.1.9a5 5 0 0 1-.4 1.3c-.1.4-.4.6-.6.9a1 1 0 0 1-.9.3h-5.1c-.2 0-.5-.5-1-.8l-1.5-.9-1.5-.7c-.5-.3-.9-.9-1.2-.9h-6.1a4.2 4.2 0 0 1 .7-2.9 3.3 3.3 0 0 1 1.6-1.5 7.4 7.4 0 0 1 2.1-.7l2.1-.3 1.6-.6a1.6 1.6 0 0 0 .7-1.4.4.4 0 0 0-.1-.3v-.3a17.8 17.8 0 0 1-.8-1.8l-1.3-2.4-1.5-2.4a10 10 0 0 0-1.6-1.8l-1.2-.8-1.9-.9-1.7-1.1a2.1 2.1 0 0 1-1-1.1c-.3-.8-.6-1.8-.9-2.9a17.3 17.3 0 0 0-1.1-3.2 7.4 7.4 0 0 0-1.7-2.5 3.8 3.8 0 0 0-2.8-1.1 24.7 24.7 0 0 0-6 .8 28 28 0 0 0-5.7 2.2 24.3 24.3 0 0 0-4.9 3.5 21.1 21.1 0 0 0-3.9 4.5l-.4.2h-.1c-.1-.1-.2-.1-.2-.2a.4.4 0 0 1-.1-.3c-.1-.2-.1-.4-.2-.6s-.1-.5-.2-.6-.1-.3-.1-.4h-.3a1.5 1.5 0 0 0-1.1.4 6.2 6.2 0 0 0-.8 1.2l-.9 1.3a2.7 2.7 0 0 1-.8 1 3.5 3.5 0 0 1-.6-1.6 11.3 11.3 0 0 1 .3-4.5 13.1 13.1 0 0 1 .9-2.8c.3-1 .6-1.6.9-2.6s.4-2.7.4-2.7h-4.8c0-1.6.2-1.8.6-2.4a5.8 5.8 0 0 1 1.6-1.5 5 5 0 0 1 2.1-.9l2.1-.3a15.1 15.1 0 0 1 3 .2l2.9.5 2.9.4 2.8.2h2.3a2.6 2.6 0 0 0-1.6-1.3l-2.6-.5-2.6-.2a5.2 5.2 0 0 1-2.2-.1l-3.9-2.2h-.2a17.4 17.4 0 0 0-3.2-.1 10.6 10.6 0 0 1-3.1.2 7.3 7.3 0 0 1-3-.7l-2.6-1.3-2.6-1.4a4.8 4.8 0 0 0-2.8-.6v6h1.5a2.3 2.3 0 0 0 1-.4l.9-.5a3.5 3.5 0 0 1 .9-.6l.6-.2v2.8l2-.7c0 .1.2.3.2.5a4.3 4.3 0 0 0 .1.5A5.3 5.3 0 0 1 90 154a22.6 22.6 0 0 1-3.2 2.9 20.9 20.9 0 0 0-4.6-1.2l-4.7-.7v-7.7l-1.7.5-2.1 1-1.9 1.2c-.4.4-.9.8-.9 1.1v6.9a9.6 9.6 0 0 0 3-.3l1.8-.6 1.2-.6a2.4 2.4 0 0 1 1.2-.3.1.1 0 0 1 .1.1h.3l.2.7c.2.4.3.8.5 1.3s.3.8.4 1.2a8.4 8.4 0 0 1 .2 1 7.2 7.2 0 0 1-.4 1.9 17.4 17.4 0 0 1-1.1 1.8 6.5 6.5 0 0 1-1.6 1.3 2.7 2.7 0 0 1-1.8.5h-1l-2.9-.4a22.1 22.1 0 0 1-3.7-.8 11.2 11.2 0 0 1-3.2-1.2 2.6 2.6 0 0 1-1.4-2.1v-11.6c0-.2.4-.4.9-.9l1.8-1.6 2.4-2.1c.9-.8 1.6-1.7 2.4-2.5a21.1 21.1 0 0 0 1.8-2.7 5.9 5.9 0 0 0 .7-2.5 3.8 3.8 0 0 0-1.2-2.8 15.5 15.5 0 0 0-2.8-2l-3.2-1.4-2.5-.9-1.3-9a16.8 16.8 0 0 0-.6-2.7 12.8 12.8 0 0 0-1.1-2.7 9.1 9.1 0 0 0-1.8-2.1 3.9 3.9 0 0 0-2.6-.9 12.5 12.5 0 0 0-3.6.5 13 13 0 0 0-3.2 1.5l-1.6 1-2.5 1.5-3 1.7-2.9 1.7-2.5 1.7c-.8.4-1.3 1.1-1.6 1.1h-1l-1.8-.3-2-.3a4.7 4.7 0 0 1-1.4-.8c-.4-.3-.3-.8-.3-1.3v-1.9c0-.6-.2-.9 0-.9h1.6a.8.8 0 0 1 0-.5c0-.2.1-.5.1-.8a3.1 3.1 0 0 0 .2-.8c.1-.3.1-.4 0-.5a1.5 1.5 0 0 0-.8-.8l-.8-.5-.7-.7a1.7 1.7 0 0 1-.3-1.2 5 5 0 0 1 .2-1.2 4.1 4.1 0 0 1 .7-1.1c.3-.4.3-.7.6-.9l.8-.3v.7a4.7 4.7 0 0 0 .6 1.5c.1.5.7.7 1.2.7a1.5 1.5 0 0 0 1.1-.5 5.3 5.3 0 0 0 .9-1.1 4.4 4.4 0 0 0 .6-1.6c.2-.4.3.3.3-1.4H22.4l-.9-.4-1-.7a3.6 3.6 0 0 1-.9-.8 1.3 1.3 0 0 1-.4-1 4.6 4.6 0 0 1 1.1-3.2 7.4 7.4 0 0 1 2.5-1.7 11.9 11.9 0 0 1 3.2-1l2.8-.9 2.2-.9 3.3-1.5 3.3-1.6a14.1 14.1 0 0 1 2.2-1.1h13.5a8 8 0 0 1 3.8 1 12.6 12.6 0 0 1 3.1 2.5 20.4 20.4 0 0 1 2.5 3.3l2.3 3.3a18.9 18.9 0 0 0 2.3 2.5 3.3 3.3 0 0 0 2.4 1c.4 0 .7-.1.8-.4a.8.8 0 0 1 .8-.4l1.5.3 1.5.7 1.6.7a4 4 0 0 0 1.5.3 27.5 27.5 0 0 0 4.1-.2l4-.4 4.1-.5 4.1-.2a55.8 55.8 0 0 1 7.2.4 40.2 40.2 0 0 1 7.2 1.5l5 2 5 2.2a52.5 52.5 0 0 0 5.2 1.7 20 20 0 0 0 5.4.7h2.6l12.7-2.7 12.7-2.3 12.8-1.5c4.3-.4 8.7-.6 13-.6h3.3l5.5.2a32.1 32.1 0 0 1 5 .9l36.1 7.2H244c-.8 0-1.8 1-3.1 1.3a13.8 13.8 0 0 1-4.1.1z"/></svg>